<mxfile host="app.diagrams.net" modified="2024-02-16T18:24:04.567Z" agent="Mozilla/5.0 (Windows NT 10.0; Win64; x64) AppleWebKit/537.36 (KHTML, like Gecko) Chrome/120.0.0.0 YaBrowser/24.1.0.0 Safari/537.36" etag="R-AlNJFO0-oWNJK447vG" version="23.1.5" type="device">
  <diagram id="C5RBs43oDa-KdzZeNtuy" name="Page-1">
    <mxGraphModel dx="1002" dy="551" grid="1" gridSize="10" guides="1" tooltips="1" connect="1" arrows="1" fold="1" page="1" pageScale="1" pageWidth="827" pageHeight="1169" math="0" shadow="0">
      <root>
        <mxCell id="WIyWlLk6GJQsqaUBKTNV-0" />
        <mxCell id="WIyWlLk6GJQsqaUBKTNV-1" parent="WIyWlLk6GJQsqaUBKTNV-0" />
        <mxCell id="-YLPaWiGfDbkhbNqOUda-35" style="edgeStyle=orthogonalEdgeStyle;rounded=0;orthogonalLoop=1;jettySize=auto;html=1;exitX=0.5;exitY=1;exitDx=0;exitDy=0;entryX=0.5;entryY=0;entryDx=0;entryDy=0;endArrow=classicThin;endFill=1;" parent="WIyWlLk6GJQsqaUBKTNV-1" source="WIyWlLk6GJQsqaUBKTNV-3" target="-YLPaWiGfDbkhbNqOUda-43" edge="1">
          <mxGeometry relative="1" as="geometry">
            <mxPoint x="490" y="265" as="targetPoint" />
          </mxGeometry>
        </mxCell>
        <mxCell id="WIyWlLk6GJQsqaUBKTNV-3" value="&lt;font face=&quot;Lucida Console&quot;&gt;Сообщение разделяется на length(k) блоков&lt;/font&gt;" style="rounded=1;whiteSpace=wrap;html=1;fontSize=12;glass=0;strokeWidth=1;shadow=0;arcSize=5;" parent="WIyWlLk6GJQsqaUBKTNV-1" vertex="1">
          <mxGeometry x="390" y="215" width="200" height="30" as="geometry" />
        </mxCell>
        <mxCell id="-YLPaWiGfDbkhbNqOUda-3" style="edgeStyle=orthogonalEdgeStyle;rounded=0;orthogonalLoop=1;jettySize=auto;html=1;exitX=0.5;exitY=1;exitDx=0;exitDy=0;entryX=0.5;entryY=0;entryDx=0;entryDy=0;endArrow=classicThin;endFill=1;" parent="WIyWlLk6GJQsqaUBKTNV-1" source="-YLPaWiGfDbkhbNqOUda-1" target="-YLPaWiGfDbkhbNqOUda-2" edge="1">
          <mxGeometry relative="1" as="geometry" />
        </mxCell>
        <mxCell id="-YLPaWiGfDbkhbNqOUda-1" value="&lt;font face=&quot;Lucida Console&quot;&gt;Начало&lt;/font&gt;" style="rounded=1;whiteSpace=wrap;html=1;fontSize=12;glass=0;strokeWidth=1;shadow=0;arcSize=50;" parent="WIyWlLk6GJQsqaUBKTNV-1" vertex="1">
          <mxGeometry x="450" y="115" width="80" height="30" as="geometry" />
        </mxCell>
        <mxCell id="-YLPaWiGfDbkhbNqOUda-2" value="&lt;font face=&quot;Lucida Console&quot;&gt;текст (x)&amp;nbsp;ключ (k)&lt;br&gt;мощность алфавита (A)&lt;br&gt;&lt;/font&gt;" style="shape=parallelogram;perimeter=parallelogramPerimeter;whiteSpace=wrap;html=1;fixedSize=1;size=10;" parent="WIyWlLk6GJQsqaUBKTNV-1" vertex="1">
          <mxGeometry x="400" y="165" width="180" height="30" as="geometry" />
        </mxCell>
        <mxCell id="-YLPaWiGfDbkhbNqOUda-27" value="&lt;font face=&quot;Lucida Console&quot;&gt;Конец&lt;/font&gt;" style="rounded=1;whiteSpace=wrap;html=1;fontSize=12;glass=0;strokeWidth=1;shadow=0;arcSize=50;" parent="WIyWlLk6GJQsqaUBKTNV-1" vertex="1">
          <mxGeometry x="660" y="265" width="80" height="30" as="geometry" />
        </mxCell>
        <mxCell id="-YLPaWiGfDbkhbNqOUda-29" style="edgeStyle=orthogonalEdgeStyle;rounded=0;orthogonalLoop=1;jettySize=auto;html=1;exitX=0.5;exitY=1;exitDx=0;exitDy=0;entryX=0.5;entryY=0;entryDx=0;entryDy=0;endArrow=classicThin;endFill=1;" parent="WIyWlLk6GJQsqaUBKTNV-1" source="-YLPaWiGfDbkhbNqOUda-2" target="WIyWlLk6GJQsqaUBKTNV-3" edge="1">
          <mxGeometry relative="1" as="geometry">
            <mxPoint x="505" y="155" as="sourcePoint" />
            <mxPoint x="505" y="175" as="targetPoint" />
          </mxGeometry>
        </mxCell>
        <mxCell id="-YLPaWiGfDbkhbNqOUda-46" style="edgeStyle=orthogonalEdgeStyle;rounded=0;orthogonalLoop=1;jettySize=auto;html=1;exitX=0.5;exitY=1;exitDx=0;exitDy=0;entryX=0.5;entryY=0;entryDx=0;entryDy=0;endArrow=classicThin;endFill=1;" parent="WIyWlLk6GJQsqaUBKTNV-1" source="-YLPaWiGfDbkhbNqOUda-43" target="-YLPaWiGfDbkhbNqOUda-45" edge="1">
          <mxGeometry relative="1" as="geometry" />
        </mxCell>
        <mxCell id="8pFvVgk9_hB-gb7RDXpW-0" style="edgeStyle=orthogonalEdgeStyle;rounded=0;orthogonalLoop=1;jettySize=auto;html=1;exitX=1;exitY=0.5;exitDx=0;exitDy=0;" edge="1" parent="WIyWlLk6GJQsqaUBKTNV-1" source="-YLPaWiGfDbkhbNqOUda-43" target="-YLPaWiGfDbkhbNqOUda-27">
          <mxGeometry relative="1" as="geometry" />
        </mxCell>
        <mxCell id="-YLPaWiGfDbkhbNqOUda-43" value="&lt;font face=&quot;Lucida Console&quot;&gt;i от 1 до length(k)&lt;/font&gt;" style="rhombus;whiteSpace=wrap;html=1;" parent="WIyWlLk6GJQsqaUBKTNV-1" vertex="1">
          <mxGeometry x="380" y="265" width="220" height="30" as="geometry" />
        </mxCell>
        <mxCell id="-YLPaWiGfDbkhbNqOUda-47" style="edgeStyle=orthogonalEdgeStyle;rounded=0;orthogonalLoop=1;jettySize=auto;html=1;exitX=0.5;exitY=1;exitDx=0;exitDy=0;entryX=0;entryY=0.5;entryDx=0;entryDy=0;endArrow=classicThin;endFill=1;" parent="WIyWlLk6GJQsqaUBKTNV-1" source="-YLPaWiGfDbkhbNqOUda-45" target="-YLPaWiGfDbkhbNqOUda-43" edge="1">
          <mxGeometry relative="1" as="geometry">
            <Array as="points">
              <mxPoint x="490" y="385" />
              <mxPoint x="330" y="385" />
              <mxPoint x="330" y="280" />
            </Array>
          </mxGeometry>
        </mxCell>
        <mxCell id="-YLPaWiGfDbkhbNqOUda-45" value="&lt;font face=&quot;Lucida Console&quot;&gt;Меняем значения i блока на значения с (порядковым номером + k[i]) mod A&lt;/font&gt;" style="rounded=1;whiteSpace=wrap;html=1;fontSize=12;glass=0;strokeWidth=1;shadow=0;arcSize=5;" parent="WIyWlLk6GJQsqaUBKTNV-1" vertex="1">
          <mxGeometry x="390" y="315" width="200" height="50" as="geometry" />
        </mxCell>
      </root>
    </mxGraphModel>
  </diagram>
</mxfile>
